<mxfile host="Electron" modified="2024-04-29T17:48:20.892Z" agent="Mozilla/5.0 (Windows NT 10.0; Win64; x64) AppleWebKit/537.36 (KHTML, like Gecko) draw.io/24.2.5 Chrome/120.0.6099.109 Electron/28.1.0 Safari/537.36" etag="nJZ6c7uQnYvFAx7btje9" version="24.2.5" type="device">
  <diagram name="Pagina-1" id="oFZp7jZiGG9xZ_rjwDAe">
    <mxGraphModel dx="827" dy="409" grid="1" gridSize="10" guides="1" tooltips="1" connect="1" arrows="1" fold="1" page="1" pageScale="1" pageWidth="827" pageHeight="1169" math="0" shadow="0">
      <root>
        <mxCell id="0" />
        <mxCell id="1" parent="0" />
        <UserObject label="" tags="Sfondo" id="MKdPnNUCyxiRjIlaWVm1-4">
          <mxCell style="vsdxID=49;fillColor=none;gradientColor=none;shape=stencil(vVHLDsIgEPwajiQU4hfU+h8bu7RELM2CFv9eyMZYjCcP3mZ2Zh/ZEaaPM6wotIqJwgU3N6ZZmKPQ2i0zkksFCTMI09tAOFG4LSPzFaqzomu41wmZ+1Tt0OrB7MD0xE6gc5EoN5qi1vsa1Kmvo1SWkF2UFBIkF5ZmqweaUJY10nqYGiluiOuu3P182P/OKuD9Zuu855T2+mcspcSRmuEJ);strokeColor=#3399ff;strokeWidth=3;points=[[0.5,0,0],[0.5,0.5,0],[0.5,0.5,0],[0.5,0.5,0],[1,0.5,0]];labelBackgroundColor=none;rounded=0;html=1;whiteSpace=wrap;" vertex="1" parent="1">
            <mxGeometry x="569" y="129" width="123" height="82" as="geometry" />
          </mxCell>
        </UserObject>
        <UserObject label="&lt;div style=&quot;font-size: 1px&quot;&gt;&lt;p style=&quot;text-align:center;margin-left:0;margin-right:0;margin-top:0px;margin-bottom:0px;text-indent:0;vertical-align:middle;direction:ltr;&quot;&gt;&lt;/p&gt;&lt;/div&gt;" tags="Connettore Azure" id="MKdPnNUCyxiRjIlaWVm1-6">
          <mxCell style="vsdxID=87;edgeStyle=none;startArrow=none;endArrow=open;startSize=5;endSize=5;strokeWidth=2;strokeColor=#000000;spacingTop=0;spacingBottom=0;spacingLeft=0;spacingRight=0;verticalAlign=middle;html=1;labelBackgroundColor=#ffffff;rounded=0;align=center;exitX=-0.002;exitY=0.573;exitDx=0;exitDy=0;exitPerimeter=0;" edge="1" parent="1" source="MKdPnNUCyxiRjIlaWVm1-4" target="MKdPnNUCyxiRjIlaWVm1-9">
            <mxGeometry relative="1" as="geometry">
              <mxPoint x="74" y="-40" as="offset" />
              <Array as="points" />
              <mxPoint x="568.326" y="172.64999999999998" as="sourcePoint" />
              <mxPoint x="453" y="173" as="targetPoint" />
            </mxGeometry>
          </mxCell>
        </UserObject>
        <UserObject label="&lt;div style=&quot;font-size: 1px&quot;&gt;&lt;p style=&quot;text-align:center;margin-left:0;margin-right:0;margin-top:0px;margin-bottom:0px;text-indent:0;vertical-align:middle;direction:ltr;&quot;&gt;&lt;/p&gt;&lt;/div&gt;" tags="Connettore Azure" id="MKdPnNUCyxiRjIlaWVm1-7">
          <mxCell style="vsdxID=87;edgeStyle=none;startArrow=none;endArrow=open;startSize=5;endSize=5;strokeWidth=2;strokeColor=#000000;spacingTop=0;spacingBottom=0;spacingLeft=0;spacingRight=0;verticalAlign=middle;html=1;labelBackgroundColor=#ffffff;rounded=0;align=center;entryX=0.072;entryY=0.733;entryDx=0;entryDy=0;entryPerimeter=0;exitX=1.008;exitY=0.583;exitDx=0;exitDy=0;exitPerimeter=0;" edge="1" parent="1" source="MKdPnNUCyxiRjIlaWVm1-9" target="MKdPnNUCyxiRjIlaWVm1-4">
            <mxGeometry relative="1" as="geometry">
              <mxPoint x="74" y="-40" as="offset" />
              <Array as="points" />
              <mxPoint x="459" y="189" as="sourcePoint" />
              <mxPoint x="569" y="189" as="targetPoint" />
            </mxGeometry>
          </mxCell>
        </UserObject>
        <mxCell id="MKdPnNUCyxiRjIlaWVm1-8" value="" style="image;aspect=fixed;html=1;points=[];align=center;fontSize=12;image=img/lib/azure2/compute/Azure_Spring_Cloud.svg;" vertex="1" parent="1">
          <mxGeometry x="330.5" y="27" width="67" height="67" as="geometry" />
        </mxCell>
        <mxCell id="MKdPnNUCyxiRjIlaWVm1-9" value="" style="image;html=1;image=img/lib/clip_art/computers/Server_Tower_128x128.png" vertex="1" parent="1">
          <mxGeometry x="280" y="100" width="168" height="152" as="geometry" />
        </mxCell>
        <mxCell id="MKdPnNUCyxiRjIlaWVm1-10" value="&lt;font style=&quot;font-size: 18px;&quot;&gt;Server&amp;nbsp;&lt;/font&gt;&lt;span style=&quot;font-size: 18px;&quot;&gt;Spring&lt;/span&gt;" style="text;html=1;align=center;verticalAlign=middle;whiteSpace=wrap;rounded=0;" vertex="1" parent="1">
          <mxGeometry x="297" y="252" width="140" height="30" as="geometry" />
        </mxCell>
        <mxCell id="MKdPnNUCyxiRjIlaWVm1-11" value="" style="shape=mxgraph.cisco.computers_and_peripherals.laptop;html=1;pointerEvents=1;dashed=0;fillColor=#036897;strokeColor=#ffffff;strokeWidth=2;verticalLabelPosition=bottom;verticalAlign=top;align=center;outlineConnect=0;" vertex="1" parent="1">
          <mxGeometry x="80" y="30" width="90" height="61" as="geometry" />
        </mxCell>
        <mxCell id="MKdPnNUCyxiRjIlaWVm1-17" value="" style="shape=mxgraph.cisco.computers_and_peripherals.macintosh;html=1;pointerEvents=1;dashed=0;fillColor=#036897;strokeColor=#ffffff;strokeWidth=2;verticalLabelPosition=bottom;verticalAlign=top;align=center;outlineConnect=0;" vertex="1" parent="1">
          <mxGeometry x="87.5" y="170" width="99" height="64" as="geometry" />
        </mxCell>
        <mxCell id="MKdPnNUCyxiRjIlaWVm1-20" value="" style="sketch=0;pointerEvents=1;shadow=0;dashed=0;html=1;strokeColor=none;fillColor=#505050;labelPosition=center;verticalLabelPosition=bottom;verticalAlign=top;outlineConnect=0;align=center;shape=mxgraph.office.devices.workstation_pc;" vertex="1" parent="1">
          <mxGeometry x="87.5" y="300" width="82.5" height="80" as="geometry" />
        </mxCell>
        <UserObject label="&lt;div style=&quot;font-size: 1px&quot;&gt;&lt;p style=&quot;text-align:center;margin-left:0;margin-right:0;margin-top:0px;margin-bottom:0px;text-indent:0;vertical-align:middle;direction:ltr;&quot;&gt;&lt;/p&gt;&lt;/div&gt;" tags="Connettore Azure" id="MKdPnNUCyxiRjIlaWVm1-21">
          <mxCell style="vsdxID=87;edgeStyle=none;startArrow=none;endArrow=open;startSize=5;endSize=5;strokeWidth=2;strokeColor=#000000;spacingTop=0;spacingBottom=0;spacingLeft=0;spacingRight=0;verticalAlign=middle;html=1;labelBackgroundColor=#ffffff;rounded=0;align=center;" edge="1" parent="1" source="MKdPnNUCyxiRjIlaWVm1-9" target="MKdPnNUCyxiRjIlaWVm1-11">
            <mxGeometry relative="1" as="geometry">
              <mxPoint x="74" y="-40" as="offset" />
              <Array as="points" />
              <mxPoint x="220" y="120" as="sourcePoint" />
              <mxPoint x="104.67399999999998" y="120.35000000000002" as="targetPoint" />
            </mxGeometry>
          </mxCell>
        </UserObject>
        <UserObject label="&lt;div style=&quot;font-size: 1px&quot;&gt;&lt;p style=&quot;text-align:center;margin-left:0;margin-right:0;margin-top:0px;margin-bottom:0px;text-indent:0;vertical-align:middle;direction:ltr;&quot;&gt;&lt;/p&gt;&lt;/div&gt;" tags="Connettore Azure" id="MKdPnNUCyxiRjIlaWVm1-22">
          <mxCell style="vsdxID=87;edgeStyle=none;startArrow=none;endArrow=open;startSize=5;endSize=5;strokeWidth=2;strokeColor=#000000;spacingTop=0;spacingBottom=0;spacingLeft=0;spacingRight=0;verticalAlign=middle;html=1;labelBackgroundColor=#ffffff;rounded=0;align=center;" edge="1" parent="1">
            <mxGeometry relative="1" as="geometry">
              <mxPoint x="74" y="-40" as="offset" />
              <Array as="points" />
              <mxPoint x="170" y="103.24686192468619" as="sourcePoint" />
              <mxPoint x="280" y="156.40585774058582" as="targetPoint" />
            </mxGeometry>
          </mxCell>
        </UserObject>
        <UserObject label="&lt;div style=&quot;font-size: 1px&quot;&gt;&lt;p style=&quot;text-align:center;margin-left:0;margin-right:0;margin-top:0px;margin-bottom:0px;text-indent:0;vertical-align:middle;direction:ltr;&quot;&gt;&lt;/p&gt;&lt;/div&gt;" tags="Connettore Azure" id="MKdPnNUCyxiRjIlaWVm1-23">
          <mxCell style="vsdxID=87;edgeStyle=none;startArrow=none;endArrow=open;startSize=5;endSize=5;strokeWidth=2;strokeColor=#000000;spacingTop=0;spacingBottom=0;spacingLeft=0;spacingRight=0;verticalAlign=middle;html=1;labelBackgroundColor=#ffffff;rounded=0;align=center;exitX=-0.012;exitY=0.662;exitDx=0;exitDy=0;exitPerimeter=0;" edge="1" parent="1">
            <mxGeometry relative="1" as="geometry">
              <mxPoint x="74" y="-40" as="offset" />
              <Array as="points" />
              <mxPoint x="277.98400000000004" y="184.62399999999997" as="sourcePoint" />
              <mxPoint x="170" y="185" as="targetPoint" />
            </mxGeometry>
          </mxCell>
        </UserObject>
        <UserObject label="&lt;div style=&quot;font-size: 1px&quot;&gt;&lt;p style=&quot;text-align:center;margin-left:0;margin-right:0;margin-top:0px;margin-bottom:0px;text-indent:0;vertical-align:middle;direction:ltr;&quot;&gt;&lt;/p&gt;&lt;/div&gt;" tags="Connettore Azure" id="MKdPnNUCyxiRjIlaWVm1-24">
          <mxCell style="vsdxID=87;edgeStyle=none;startArrow=none;endArrow=open;startSize=5;endSize=5;strokeWidth=2;strokeColor=#000000;spacingTop=0;spacingBottom=0;spacingLeft=0;spacingRight=0;verticalAlign=middle;html=1;labelBackgroundColor=#ffffff;rounded=0;align=center;entryX=0;entryY=0.75;entryDx=0;entryDy=0;exitX=0.934;exitY=0.469;exitDx=0;exitDy=0;exitPerimeter=0;" edge="1" parent="1" source="MKdPnNUCyxiRjIlaWVm1-17">
            <mxGeometry relative="1" as="geometry">
              <mxPoint x="74" y="-40" as="offset" />
              <Array as="points" />
              <mxPoint x="180" y="200" as="sourcePoint" />
              <mxPoint x="280" y="200.00000000000006" as="targetPoint" />
            </mxGeometry>
          </mxCell>
        </UserObject>
        <UserObject label="&lt;div style=&quot;font-size: 1px&quot;&gt;&lt;p style=&quot;text-align:center;margin-left:0;margin-right:0;margin-top:0px;margin-bottom:0px;text-indent:0;vertical-align:middle;direction:ltr;&quot;&gt;&lt;/p&gt;&lt;/div&gt;" tags="Connettore Azure" id="MKdPnNUCyxiRjIlaWVm1-25">
          <mxCell style="vsdxID=87;edgeStyle=none;startArrow=none;endArrow=open;startSize=5;endSize=5;strokeWidth=2;strokeColor=#000000;spacingTop=0;spacingBottom=0;spacingLeft=0;spacingRight=0;verticalAlign=middle;html=1;labelBackgroundColor=#ffffff;rounded=0;align=center;exitX=-0.03;exitY=0.39;exitDx=0;exitDy=0;exitPerimeter=0;" edge="1" parent="1" source="MKdPnNUCyxiRjIlaWVm1-10" target="MKdPnNUCyxiRjIlaWVm1-20">
            <mxGeometry relative="1" as="geometry">
              <mxPoint x="74" y="-40" as="offset" />
              <Array as="points" />
              <mxPoint x="220" y="290" as="sourcePoint" />
              <mxPoint x="160" y="340" as="targetPoint" />
            </mxGeometry>
          </mxCell>
        </UserObject>
        <UserObject label="&lt;div style=&quot;font-size: 1px&quot;&gt;&lt;p style=&quot;text-align:center;margin-left:0;margin-right:0;margin-top:0px;margin-bottom:0px;text-indent:0;vertical-align:middle;direction:ltr;&quot;&gt;&lt;/p&gt;&lt;/div&gt;" tags="Connettore Azure" id="MKdPnNUCyxiRjIlaWVm1-26">
          <mxCell style="vsdxID=87;edgeStyle=none;startArrow=none;endArrow=open;startSize=5;endSize=5;strokeWidth=2;strokeColor=#000000;spacingTop=0;spacingBottom=0;spacingLeft=0;spacingRight=0;verticalAlign=middle;html=1;labelBackgroundColor=#ffffff;rounded=0;align=center;entryX=0;entryY=1;entryDx=0;entryDy=0;exitX=0.995;exitY=-0.012;exitDx=0;exitDy=0;exitPerimeter=0;" edge="1" parent="1" target="MKdPnNUCyxiRjIlaWVm1-9">
            <mxGeometry relative="1" as="geometry">
              <mxPoint x="74" y="-40" as="offset" />
              <Array as="points" />
              <mxPoint x="169.58750000000003" y="301.04" as="sourcePoint" />
              <mxPoint x="277.98400000000004" y="254" as="targetPoint" />
            </mxGeometry>
          </mxCell>
        </UserObject>
        <mxCell id="MKdPnNUCyxiRjIlaWVm1-29" value="&lt;font style=&quot;font-size: 18px;&quot;&gt;homeCSS.html&lt;/font&gt;" style="text;html=1;align=center;verticalAlign=middle;whiteSpace=wrap;rounded=0;" vertex="1" parent="1">
          <mxGeometry x="60" y="100" width="110" height="30" as="geometry" />
        </mxCell>
        <mxCell id="MKdPnNUCyxiRjIlaWVm1-30" value="&lt;font style=&quot;font-size: 18px;&quot;&gt;homeCSS.html&lt;/font&gt;" style="text;html=1;align=center;verticalAlign=middle;whiteSpace=wrap;rounded=0;" vertex="1" parent="1">
          <mxGeometry x="70" y="240" width="110" height="30" as="geometry" />
        </mxCell>
        <mxCell id="MKdPnNUCyxiRjIlaWVm1-31" value="&lt;font style=&quot;font-size: 18px;&quot;&gt;homeCSS.html&lt;/font&gt;" style="text;html=1;align=center;verticalAlign=middle;whiteSpace=wrap;rounded=0;" vertex="1" parent="1">
          <mxGeometry x="76.5" y="390" width="110" height="30" as="geometry" />
        </mxCell>
        <mxCell id="MKdPnNUCyxiRjIlaWVm1-33" value="&lt;font style=&quot;font-size: 18px;&quot;&gt;controller (FACADE)&lt;/font&gt;" style="text;html=1;align=center;verticalAlign=middle;whiteSpace=wrap;rounded=0;" vertex="1" parent="1">
          <mxGeometry x="600.5" y="219" width="60" height="30" as="geometry" />
        </mxCell>
      </root>
    </mxGraphModel>
  </diagram>
</mxfile>
